<svg width="660" height="268" viewBox="0 0 660 268" fill="none" xmlns="http://www.w3.org/2000/svg">
    <g clip-path="url(#clip0_3_42)">
        <path d="M171.86 11.77H194.76C201 11.77 206.36 14.02 210.84 18.51C215.32 23.01 217.56 28.36 217.56 34.56V91.71C217.56 97.88 215.32 103.23 210.84 107.74C206.36 112.25 201 114.51 194.76 114.51H171.86C165.62 114.51 160.26 112.27 155.78 107.79C151.3 103.31 149.06 97.95 149.06 91.71V34.56C149.06 28.32 151.3 22.96 155.78 18.48C160.26 14 165.62 11.76 171.86 11.76V11.77ZM171.86 34.57V91.72C171.86 94.79 172.97 97.45 175.2 99.69C177.43 101.94 180.13 103.06 183.31 103.06C186.49 103.06 189.19 101.94 191.42 99.69C193.65 97.44 194.76 94.79 194.76 91.72V34.57C194.76 31.47 193.63 28.8 191.36 26.57C189.09 24.34 186.41 23.23 183.31 23.23C180.21 23.23 177.48 24.35 175.23 26.57C172.98 28.8 171.86 31.47 171.86 34.57Z"
              fill="#060718"/>
        <path d="M240.36 114.52V11.77H286.06C292.3 11.77 297.66 14.02 302.14 18.51C306.62 23.01 308.86 28.36 308.86 34.56V46.01C308.86 52.25 306.62 57.61 302.14 62.09C297.66 66.57 292.3 68.81 286.06 68.81H263.16V114.51H240.36V114.52ZM263.16 57.47H274.61C277.71 57.47 280.4 56.34 282.66 54.07C284.93 51.81 286.06 49.12 286.06 46.02V34.57C286.06 31.47 284.93 28.8 282.66 26.57C280.39 24.34 277.71 23.23 274.61 23.23H263.16V57.48V57.47Z"
              fill="#060718"/>
        <path d="M331.65 114.52V11.77H388.7V23.22H354.45V57.47H377.35V68.82H354.45V103.07H388.7V114.52H331.65Z"
              fill="#060718"/>
        <path d="M411.61 114.52V11.77H416.8L480.11 68.82V11.77H491.56V114.52H486.32L423.06 57.47V114.52H411.61Z"
              fill="#060718"/>
        <path d="M149.06 267.52V164.77H206.11V176.22H171.86V210.47H194.76V221.82H171.86V267.52H149.06Z" fill="#060718"/>
        <path d="M229.01 267.52V164.77H274.71C280.95 164.77 286.31 167.02 290.79 171.51C295.27 176.01 297.51 181.36 297.51 187.56V193.77C297.51 198.87 295.76 203.79 292.27 208.51C288.77 213.24 282.92 215.6 274.72 215.6H286.07C289.21 215.6 291.9 216.72 294.15 218.97C296.4 221.22 297.52 223.91 297.52 227.05V267.51H274.72V233.26C274.72 230.12 273.59 227.43 271.32 225.18C269.05 222.93 266.37 221.81 263.27 221.81H251.82V267.51H229.02L229.01 267.52ZM251.81 210.47H263.26C266.36 210.47 269.05 209.34 271.31 207.07C273.58 204.81 274.71 202.12 274.71 199.02V187.57C274.71 184.47 273.58 181.8 271.31 179.57C269.04 177.34 266.36 176.23 263.26 176.23H251.81V210.48V210.47Z"
              fill="#060718"/>
        <path d="M320.31 267.52V164.77H377.36V176.22H343.11V210.47H366.01V221.82H343.11V256.07H377.36V267.52H320.31Z"
              fill="#060718"/>
        <path d="M457.31 187.57H445.96C444.96 179.94 441.36 176.12 435.15 176.12C431.15 176.12 428.14 177.08 426.11 179.01C424.08 180.94 423.06 183.81 423.06 187.63C423.06 190.48 424.18 193.16 426.43 195.66L450.62 222.85C455.08 227.85 457.31 233.21 457.31 238.96V244.74C457.31 250.91 455.08 256.26 450.62 260.77C446.16 265.28 440.79 267.54 434.51 267.54H423.06C415.5 267.54 409.81 265.63 405.99 261.81C402.17 257.99 400.26 252.3 400.26 244.74H411.71C411.64 245.53 411.6 246.15 411.6 246.61C411.6 249.71 412.79 252.07 415.19 253.67C417.58 255.28 420.2 256.08 423.06 256.08C427.13 256.08 430.05 255.1 431.84 253.14C433.62 251.18 434.52 248.32 434.52 244.58C434.52 241.69 433.4 239.01 431.15 236.55L406.96 209.47C402.5 204.51 400.27 199.14 400.27 193.36V187.58C400.27 181.37 402.5 176.02 406.96 171.53C411.42 167.03 416.79 164.79 423.07 164.79H434.52C448.79 164.79 456.39 172.39 457.32 187.59L457.31 187.57Z"
              fill="#060718"/>
        <path d="M485.69 267.52V164.77H490.88L554.19 221.82V164.77H565.64V267.52H560.4L497.14 210.47V267.52H485.69Z"
              fill="#060718"/>
        <path d="M613.98 164.77H636.88C643.12 164.77 648.48 167.02 652.96 171.51C657.44 176.01 659.68 181.36 659.68 187.56V244.71C659.68 250.88 657.44 256.23 652.96 260.74C648.48 265.25 643.12 267.51 636.88 267.51H613.98C607.74 267.51 602.38 265.27 597.9 260.79C593.42 256.31 591.18 250.95 591.18 244.71V187.56C591.18 181.32 593.42 175.96 597.9 171.48C602.38 167 607.74 164.76 613.98 164.76V164.77ZM613.98 187.57V244.72C613.98 247.79 615.09 250.45 617.32 252.69C619.55 254.94 622.25 256.06 625.43 256.06C628.61 256.06 631.31 254.94 633.54 252.69C635.77 250.44 636.88 247.79 636.88 244.72V187.57C636.88 184.47 635.75 181.8 633.48 179.57C631.21 177.34 628.53 176.23 625.43 176.23C622.33 176.23 619.6 177.35 617.35 179.57C615.1 181.8 613.98 184.47 613.98 187.57Z"
              fill="#060718"/>
        <path d="M82.07 49L51.84 22.97C50.71 21.99 49.26 21.46 47.77 21.46C46.28 21.46 44.83 22 43.7 22.97L13.47 49C12.69 49.67 12.41 50.73 12.74 51.73C13.07 52.73 13.93 53.37 14.92 53.37H18.64C19.91 53.37 20.95 54.48 20.95 55.83V79.96C20.95 83.41 8.32997 111.54 11.78 111.54H80.7C84.15 111.54 74.58 83.41 74.58 79.96V55.83C74.58 54.48 75.62 53.37 76.9 53.37H80.61C81.61 53.37 82.46 52.73 82.79 51.73C83.12 50.73 82.84 49.66 82.07 49Z"
              fill="#060718"/>
        <path d="M85.11 178.73H10.42C9.32 216.69 7.25 251.29 0 267.9H95.48C86.87 238.4 86.82 217.48 85.1 178.73H85.11ZM26.35 249.92C18.86 249.92 18.87 238.3 26.35 238.3C33.83 238.3 33.83 249.92 26.35 249.92ZM69.64 249.92C62.15 249.92 62.16 238.3 69.64 238.3C77.12 238.3 77.12 249.92 69.64 249.92Z"
              fill="#060718"/>
        <path d="M45.29 8.7V0H50.59V8.7L58.81 4.37L61.46 8.52L53.21 12.89L61.46 17.24L58.81 21.41L50.56 17.08V25.78H45.29V17.08L37.07 21.41L34.42 17.24L42.67 12.89L34.42 8.52L37.07 4.37L45.29 8.7Z"
              fill="#060718"/>
        <path d="M2.08997 147.52L18.75 132.95H25L8.33997 147.52L25 162.09H18.75L2.08997 147.52Z" fill="#060718"
              stroke="#060718" stroke-width="3" stroke-miterlimit="10"/>
        <path d="M35.4299 166.27L52.1099 124.59H56.2499L39.6099 166.27H35.4299Z" fill="#060718" stroke="#060718"
              stroke-width="3" stroke-miterlimit="10"/>
        <path d="M89.6099 147.52L72.9299 162.09H66.6799L83.3599 147.52L66.6799 132.95H72.9299L89.6099 147.52Z"
              fill="#060718" stroke="#060718" stroke-width="3" stroke-miterlimit="10"/>
        <path d="M86.48 46.26H9.47998V54.26H86.48V46.26Z" fill="#060718"/>
    </g>
    <defs>
        <clipPath id="clip0_3_42">
            <rect width="660" height="268" fill="white"/>
        </clipPath>
    </defs>
</svg>
