<svg width="144" height="144" viewBox="0 0 144 144" fill="none" xmlns="http://www.w3.org/2000/svg">
<g clip-path="url(#clip0_5_33)">
<ellipse cx="72" cy="71.6877" rx="72" ry="68.6877" fill="#004491"/>
<path d="M84.0536 42.0508L73.5133 32.975C73.1193 32.6333 72.6138 32.4485 72.0943 32.4485C71.5747 32.4485 71.0692 32.6368 70.6752 32.975L60.1349 42.0508C59.863 42.2844 59.7653 42.654 59.8804 43.0027C59.9955 43.3513 60.2953 43.5745 60.6405 43.5745H61.9375C62.3804 43.5745 62.743 43.9615 62.743 44.4322V52.8456C62.743 54.0485 58.3428 63.8565 59.5457 63.8565H83.5759C84.7788 63.8565 81.4421 54.0485 81.4421 52.8456V44.4322C81.4421 43.9615 81.8047 43.5745 82.251 43.5745H83.5445C83.8932 43.5745 84.1896 43.3513 84.3046 43.0027C84.4197 42.654 84.322 42.2809 84.0536 42.0508Z" fill="#FFFCF5"/>
<path d="M85.1136 87.2836H59.0716C58.6881 100.519 57.9663 112.583 55.4385 118.374H88.7293C85.7273 108.089 85.7099 100.794 85.1101 87.2836H85.1136ZM64.6259 112.105C62.0144 112.105 62.0178 108.054 64.6259 108.054C67.2339 108.054 67.2339 112.105 64.6259 112.105ZM79.7197 112.105C77.1082 112.105 77.1117 108.054 79.7197 108.054C82.3278 108.054 82.3278 112.105 79.7197 112.105Z" fill="#FFFCF5"/>
<path d="M71.2297 27.9995V24.9661H73.0777V27.9995L75.9437 26.4898L76.8677 27.9367L73.9912 29.4604L76.8677 30.9771L75.9437 32.4311L73.0672 30.9213V33.9548H71.2297V30.9213L68.3637 32.4311L67.4397 30.9771L70.3162 29.4604L67.4397 27.9367L68.3637 26.4898L71.2297 27.9995Z" fill="#FFFCF5"/>
<path d="M56.167 76.4017L61.9758 71.3216H64.155L58.3462 76.4017L64.155 81.4818H61.9758L56.167 76.4017Z" fill="#FFFCF5" stroke="#FFFCF5" stroke-width="1.046" stroke-miterlimit="10"/>
<path d="M67.7917 82.9392L73.6075 68.4067H75.051L69.2492 82.9392H67.7917Z" fill="#FFFCF5" stroke="#FFFCF5" stroke-width="1.046" stroke-miterlimit="10"/>
<path d="M86.6825 76.4017L80.8667 81.4818H78.6875L84.5033 76.4017L78.6875 71.3216H80.8667L86.6825 76.4017Z" fill="#FFFCF5" stroke="#FFFCF5" stroke-width="1.046" stroke-miterlimit="10"/>
<path d="M85.5914 41.0955H58.7439V43.8848H85.5914V41.0955Z" fill="#FFFCF5"/>
</g>
<defs>
<clipPath id="clip0_5_33">
<rect width="144" height="144" fill="white"/>
</clipPath>
</defs>
</svg>
